# xmcd CD database file generated by Grip 3.2.0
# 
# Track frame offsets:
#       150
#       23488
#       50078
#       76348
#       98965
#       117188
#       140278
#       163445
#       186065
#       225018
# 
# Disc length: 3341 seconds
# 
# Revision: 1
# Processed by: cddbd v1.5.1PL2 Copyright (c) Steve Scherf et al.
# Submitted via: Grip 3.2.0
# 
DISCID=750d0b0a
DTITLE=GASBOYS - GAS
DYEAR=1994
DGENRE=Hip-Hop
TTITLE0=ブ・プー
TTITLE1=ウォッカだけ
TTITLE2=ポチ
TTITLE3=ブタもおだてりゃ木に登る
TTITLE4=さじ加減
TTITLE5=奥さま雑誌
TTITLE6=会ってみたら実はいい奴
TTITLE7=きけよ
TTITLE8=週末ロータリー
TTITLE9=おともだち
EXTD=YEAR: 1994
EXTT0=
EXTT1=
EXTT2=
EXTT3=
EXTT4=
EXTT5=
EXTT6=
EXTT7=
EXTT8=
EXTT9=
PLAYORDER=
